<!--
Copyright (C) 2026 Arm Limited
SPDX-License-Identifier: Apache-2.0
-->
<svg version="1.1" viewBox="0 0 300 300"
    xmlns="http://www.w3.org/2000/svg">

    <path style="display:inline;overflow:visible;vector-effect:none;fill:#ffffff;fill-opacity:1;stroke:none;enable-background:accumulate;stop-color:#000000" d="M 132.4208,54.719194 C 88.58827,60.772079 57.60048,78.872316 57.60048,100.85396 v 139.5 c 0,27.1 47.09883,48.30078 107.29883,48.30078 60.2,0 107.30078,-21.20078 107.30078,-48.30078 v -139.5 c 0,-21.981642 -30.98974,-40.081879 -74.82226,-46.134766 v 10.994141 c 34.37277,5.183752 64.02148,18.157573 64.02148,35.041015 0,22.1 -50.9,37.5 -96.5,37.5 -45.6,0 -96.5,-15.30039 -96.5,-37.40039 0,-16.95984 29.64871,-29.950664 64.02149,-35.138672 z M 68.39931,122.05318 c 17.2,16.1 53.5,27 96.5,27 43.1,0 79.3,-10.9 96.5,-27 v 21.70117 c 0,22.1 -50.9,37.5 -96.5,37.5 -45.6,0 -96.5,-15.4 -96.5,-37.5 z m 0,43 c 17.2,16.1 53.5,27 96.5,27 43.1,0 79.3,-10.9 96.5,-27 v 27 c 0,22.1 -50.9,37.5 -96.5,37.5 -45.6,0 -96.5,-15.4 -96.5,-37.5 z m 0,48.30078 c 17.2,16.1 53.5,27 96.5,27 43.1,0 79.3,-10.9 96.5,-27 v 27 c 0,22.1 -50.8,37.5 -96.5,37.5 -45.7,0 -96.5,-15.4 -96.5,-37.5 z" id="path15" />
    <path style="opacity:1;font-size:64px;display:inline;overflow:visible;vector-effect:none;fill:#ffffff;enable-background:accumulate;stop-color:#000000;stop-opacity:1;stroke:none;fill-opacity:1" d="m -334.87393,-73.848656 q -3.3125,0 -6.25,-0.625 -2.90625,-0.625 -5.46875,-1.875 -2.53125,-1.25 -4.75,-3.125 v 0 l 3.96875,-4.875 v 0 q 2.59375,2.25 5.71875,3.375 3.125,1.125 6.78125,1.125 4.9375,0 7.65625,-1.84375 2.71875,-1.84375 2.71875,-5.15625 v -0.03125 q 0,-2.59375 -1.375,-3.96875 -1.375,-1.375 -3.625,-2.03125 -2.21875,-0.6875 -4.875,-1.125 -2.5625,-0.4375 -5.1875,-1.03125 -2.59375,-0.59375 -4.78125,-1.84375 -2.1875,-1.28125 -3.53125,-3.656254 -1.3125,-2.375 -1.3125,-6.34375 v -0.0312 q 0,-6.34375 4.21875,-9.8125 4.21875,-3.5 11.90625,-3.5 3.65625,0 7.15625,1.1875 3.5,1.15625 6.8125,3.5625 v 0 l -3.625,5.0625 v 0 q -2.59375,-1.9375 -5.1875,-2.875 -2.5625,-0.9375 -5.15625,-0.9375 -4.65625,0 -7.25,1.875 -2.5625,1.84375 -2.5625,5.25 v 0.0312 q 0,2.5625 1.5,3.90625 1.5,1.34375 3.90625,2 2.4375,0.625 5.21875,1.187504 2.5,0.5 5,1.21875 2.5,0.6875 4.53125,2.03125 2.0625,1.3125 3.28125,3.625 1.25,2.3125 1.25,6.03125 v 0.0625 q 0,6.28125 -4.375,9.71875 -4.375,3.4375 -12.3125,3.4375 z m 29.4375,-0.46875 v -6.0625 h 10.28125 q 5.03125,0 7.78125,-2.59375 2.78125,-2.625 2.78125,-7.375 v -13.375004 q 0,-4.75 -2.78125,-7.34375 -2.75,-2.625 -7.78125,-2.625 h -10.28125 v -6.0625 h 10.09375 q 8.25,0 12.75,4.28125 4.53125,4.25 4.53125,12 v 12.875004 q 0,5.15625 -2.03125,8.8125 -2.03125,3.625 -5.90625,5.5625 -3.875,1.90625 -9.375,1.90625 z m -4.3125,0 v -45.437504 h 6.375 v 45.437504 z m 54.40625,0.46875 q -3.3125,0 -6.25,-0.625 -2.90625,-0.625 -5.46875,-1.875 -2.53125,-1.25 -4.75,-3.125 v 0 l 3.96875,-4.875 v 0 q 2.59375,2.25 5.71875,3.375 3.125,1.125 6.78125,1.125 4.9375,0 7.65625,-1.84375 2.71875,-1.84375 2.71875,-5.15625 v -0.03125 q 0,-2.59375 -1.375,-3.96875 -1.375,-1.375 -3.625,-2.03125 -2.21875,-0.6875 -4.875,-1.125 -2.5625,-0.4375 -5.1875,-1.03125 -2.59375,-0.59375 -4.78125,-1.84375 -2.1875,-1.28125 -3.53125,-3.656254 -1.3125,-2.375 -1.3125,-6.34375 v -0.0312 q 0,-6.34375 4.21875,-9.8125 4.21875,-3.5 11.90625,-3.5 3.65625,0 7.15625,1.1875 3.5,1.15625 6.8125,3.5625 v 0 l -3.625,5.0625 v 0 q -2.59375,-1.9375 -5.1875,-2.875 -2.5625,-0.9375 -5.15625,-0.9375 -4.65625,0 -7.25,1.875 -2.5625,1.84375 -2.5625,5.25 v 0.0312 q 0,2.5625 1.5,3.90625 1.5,1.34375 3.90625,2 2.4375,0.625 5.21875,1.187504 2.5,0.5 5,1.21875 2.5,0.6875 4.53125,2.03125 2.0625,1.3125 3.28125,3.625 1.25,2.3125 1.25,6.03125 v 0.0625 q 0,6.28125 -4.375,9.71875 -4.375,3.4375 -12.3125,3.4375 z" id="path24" transform="translate(364.8489,123.78027)" />
    <g id="path2" style="opacity:1;stroke:none;fill:#ffffff;fill-opacity:1" transform="translate(-10.81358,-2.59526)">
        <path style="display:inline;overflow:visible;vector-effect:none;fill:#ffffff;stroke-linecap:round;enable-background:accumulate;stop-color:#000000;stop-opacity:1;stroke:none;fill-opacity:1" d="M 157.14997,21.968095 V 103.93704" id="path22" />
        <path style="display:inline;overflow:visible;vector-effect:none;fill:#ffffff;stroke-linecap:round;enable-background:accumulate;stop-color:#000000;stop-opacity:1;stroke:none;fill-opacity:1" d="m 157.15039,17.96875 a 4,4 0 0 0 -4,4 v 81.96875 a 4,4 0 0 0 4,4 4,4 0 0 0 4,-4 V 21.96875 a 4,4 0 0 0 -4,-4 z" id="path23" />
        <path style="opacity:1;display:inline;overflow:visible;vector-effect:none;fill:#ffffff;stroke-linecap:round;enable-background:accumulate;stop-color:#000000;stop-opacity:1;stroke:none;fill-opacity:1" d="m 133.15039,77.9375 a 4,4 0 0 0 -2.82812,1.171875 4,4 0 0 0 0,5.65625 l 26.82812,26.828125 26.82813,-26.828125 a 4,4 0 0 0 0,-5.65625 4,4 0 0 0 -5.65625,0 L 157.15039,100.28125 135.97852,79.109375 A 4,4 0 0 0 133.15039,77.9375 Z" id="path21" />
    </g>
    <g id="path9" style="opacity:1;stroke:none;fill:#ffffff;fill-opacity:1" transform="rotate(180,182.42445,61.890135)">
        <path style="display:inline;overflow:visible;vector-effect:none;fill:#ffffff;stroke-linecap:round;enable-background:accumulate;stop-color:#000000;stop-opacity:1;stroke:none;fill-opacity:1" d="M 178.75145,16.334805 V 100.75058" id="path19" />
        <path style="display:inline;overflow:visible;vector-effect:none;fill:#ffffff;stroke-linecap:round;enable-background:accumulate;stop-color:#000000;stop-opacity:1;stroke:none;fill-opacity:1" d="m 178.75195,12.333984 a 4,4 0 0 0 -4,4 V 100.75 a 4,4 0 0 0 4,4 4,4 0 0 0 4,-4 V 16.333984 a 4,4 0 0 0 -4,-4 z" id="path20" />
        <path style="opacity:1;display:inline;overflow:visible;vector-effect:none;fill:#ffffff;stroke-linecap:round;enable-background:accumulate;stop-color:#000000;stop-opacity:1;stroke:none;fill-opacity:1" d="m 154.75195,74.75 a 4,4 0 0 0 -2.82812,1.171875 4,4 0 0 0 0,5.65625 l 26.82812,26.830075 26.82813,-26.830075 a 4,4 0 0 0 0,-5.65625 4,4 0 0 0 -5.65625,0 L 178.75195,97.09375 157.58008,75.921875 A 4,4 0 0 0 154.75195,74.75 Z" id="path18" />
    </g>
</svg>
