<?xml version="1.0" encoding="UTF-8" standalone="no"?>
<!--
Copyright (C) 2026 Arm Limited
SPDX-License-Identifier: Apache-2.0
-->

<svg
   version="1.1"
   viewBox="0 0 300 300"
   id="svg1"
   sodipodi:docname="sds-icon.svg"
   inkscape:version="1.4.3 (0d15f75, 2025-12-25)"
   inkscape:export-filename="sds-icon.png"
   inkscape:export-xdpi="96"
   inkscape:export-ydpi="96"
   xmlns:inkscape="http://www.inkscape.org/namespaces/inkscape"
   xmlns:sodipodi="http://sodipodi.sourceforge.net/DTD/sodipodi-0.dtd"
   xmlns="http://www.w3.org/2000/svg"
   xmlns:svg="http://www.w3.org/2000/svg">
  <defs
     id="defs1" />
  <sodipodi:namedview
     id="namedview1"
     pagecolor="#505050"
     bordercolor="#eeeeee"
     borderopacity="1"
     inkscape:showpageshadow="0"
     inkscape:pageopacity="0"
     inkscape:pagecheckerboard="0"
     inkscape:deskcolor="#505050"
     inkscape:zoom="2.7827371"
     inkscape:cx="140.32946"
     inkscape:cy="157.57867"
     inkscape:window-width="1720"
     inkscape:window-height="1369"
     inkscape:window-x="1712"
     inkscape:window-y="-8"
     inkscape:window-maximized="1"
     inkscape:current-layer="layer1"
     showguides="true" />
  <path
     style="font-size:64px;display:inline;overflow:visible;opacity:1;vector-effect:none;fill:#ffffff;fill-opacity:1;stroke:none;stroke-width:2.32723;enable-background:accumulate;stop-color:#000000;stop-opacity:1"
     d="m 51.122448,291.2875 q -8.213962,0 -15.498045,-1.36509 -7.206594,-1.3651 -13.560793,-4.0953 -6.276711,-2.73021 -11.778517,-6.8255 v 0 l 9.841261,-10.64776 v 0 q 6.43169,4.91434 14.180714,7.37152 7.749024,2.45718 16.81538,2.45718 12.243459,0 18.985107,-4.02704 6.741661,-4.02704 6.741661,-11.26206 v -0.0681 q 0,-5.66516 -3.409578,-8.66838 -3.409566,-3.0032 -8.98886,-4.43656 -5.501811,-1.5016 -12.08848,-2.45718 -6.354205,-0.95556 -12.86339,-2.25241 -6.431684,-1.29684 -11.856001,-4.02705 -5.424317,-2.79843 -8.756397,-7.98582 -3.25459,-5.18737 -3.25459,-13.85575 v -0.0682 q 0,-13.85575 10.461182,-21.43205 10.461179,-7.64456 29.523782,-7.64456 9.066357,0 17.74527,2.5937 8.678901,2.52543 16.892864,7.78105 v 0 l -8.988861,11.0573 v 0 q -6.431689,-4.23181 -12.863378,-6.27945 -6.354206,-2.04765 -12.785895,-2.04765 -11.546044,0 -17.977733,4.09529 -6.354202,4.02705 -6.354202,11.46683 v 0.0682 q 0,5.59691 3.719531,8.53187 3.719529,2.93496 9.686279,4.36832 6.044233,1.36509 12.940874,2.59368 6.199213,1.09207 12.398439,2.66195 6.199213,1.5016 11.236085,4.43656 5.114355,2.8667 8.136479,7.91758 3.099607,5.05085 3.099607,13.17319 v 0.13651 q 0,13.71924 -10.848644,21.22729 -10.848629,7.50804 -30.531151,7.50804 z m 72.995812,-1.02382 v -13.24146 h 25.49428 q 12.47594,0 19.29507,-5.66516 6.89664,-5.73342 6.89664,-16.10816 v -29.21311 q 0,-10.37475 -6.89664,-16.03991 -6.81913,-5.73341 -19.29507,-5.73341 h -25.49428 v -13.24146 h 25.02935 q 20.45742,0 31.61602,9.35093 11.23608,9.28267 11.23608,26.20988 v 28.12103 q 0,11.26207 -5.03687,19.24789 -5.03686,7.91758 -14.64565,12.14939 -9.60879,4.16355 -23.24708,4.16355 z m -10.69366,0 v -99.24267 h 15.80801 v 99.24267 z m 134.91052,1.02382 q -8.21397,0 -15.49805,-1.36509 -7.2066,-1.3651 -13.56079,-4.0953 -6.27671,-2.73021 -11.77852,-6.8255 v 0 l 9.84125,-10.64776 v 0 q 6.4317,4.91434 14.18073,7.37152 7.74902,2.45718 16.81538,2.45718 12.24345,0 18.9851,-4.02704 6.74166,-4.02704 6.74166,-11.26206 v -0.0681 q 0,-5.66516 -3.40958,-8.66838 -3.40956,-3.0032 -8.98886,-4.43656 -5.50181,-1.5016 -12.08847,-2.45718 -6.35421,-0.95556 -12.8634,-2.25241 -6.43168,-1.29684 -11.856,-4.02705 -5.42431,-2.79843 -8.7564,-7.98582 -3.25458,-5.18737 -3.25458,-13.85575 v -0.0682 q 0,-13.85575 10.46117,-21.43205 10.46119,-7.64456 29.52379,-7.64456 9.06636,0 17.74527,2.5937 8.6789,2.52543 16.89286,7.78105 v 0 l -8.98886,11.0573 v 0 q -6.43169,-4.23181 -12.86337,-6.27945 -6.35421,-2.04765 -12.7859,-2.04765 -11.54604,0 -17.97773,4.09529 -6.35421,4.02705 -6.35421,11.46683 v 0.0682 q 0,5.59691 3.71953,8.53187 3.71954,2.93496 9.68629,4.36832 6.04424,1.36509 12.94087,2.59368 6.19921,1.09207 12.39844,2.66195 6.19921,1.5016 11.23608,4.43656 5.11436,2.8667 8.13648,7.91758 3.09961,5.05085 3.09961,13.17319 v 0.13651 q 0,13.71924 -10.84864,21.22729 -10.84863,7.50804 -30.53115,7.50804 z"
     id="path24" />
  <g
     inkscape:groupmode="layer"
     id="layer1"
     inkscape:label="Layer 1"
     style="stroke:#ffffff;stroke-opacity:1;stroke-width:15;stroke-dasharray:none">
    <g
       id="g4"
       transform="translate(193.69562,-12.24262)"
       style="stroke-width:20;stroke-dasharray:none">
      <path
         d="m -105.19562,154.74262 -38.8597,-38.8597"
         style="fill:none;stroke:#ffffff;stroke-width:20;stroke-linecap:round;stroke-dasharray:none;stroke-opacity:1"
         id="path1" />
      <path
         style="fill:none;stroke:#ffffff;stroke-width:20;stroke-linecap:round;stroke-dasharray:none;stroke-opacity:1"
         d="m -104.05532,154.74262 38.859704,-38.8597"
         id="path4"
         sodipodi:nodetypes="cc" />
      <path
         style="fill:none;stroke:#ffffff;stroke-width:20;stroke-linecap:round;stroke-dasharray:none;stroke-opacity:1;paint-order:normal"
         d="M -104.05532,42.539231 V 154.74262"
         id="path3"
         sodipodi:nodetypes="cc" />
    </g>
    <g
       id="g7"
       transform="matrix(1,0,0,-1,315.55532,185.03923)"
       style="stroke-width:20;stroke-dasharray:none">
      <path
         d="m -105.19562,154.74262 -38.8597,-38.8597"
         style="fill:none;stroke:#ffffff;stroke-width:20;stroke-linecap:round;stroke-dasharray:none;stroke-opacity:1"
         id="path5" />
      <path
         style="fill:none;stroke:#ffffff;stroke-width:20;stroke-linecap:round;stroke-dasharray:none;stroke-opacity:1"
         d="m -104.05532,154.74262 38.859704,-38.8597"
         id="path6"
         sodipodi:nodetypes="cc" />
      <path
         style="fill:none;stroke:#ffffff;stroke-width:20;stroke-linecap:round;stroke-dasharray:none;stroke-opacity:1;paint-order:normal"
         d="M -104.05532,42.539231 V 154.74262"
         id="path7"
         sodipodi:nodetypes="cc" />
    </g>
  </g>
</svg>
